<?xml version="1.0" standalone="no"?>
<!DOCTYPE svg PUBLIC "-//W3C//DTD SVG 20010904//EN"
 "http://www.w3.org/TR/2001/REC-SVG-20010904/DTD/svg10.dtd">
<svg version="1.0" xmlns="http://www.w3.org/2000/svg"
 width="512.000000pt" height="512.000000pt" viewBox="0 0 512.000000 512.000000"
 preserveAspectRatio="xMidYMid meet">
<metadata>
Created by potrace 1.11, written by Peter Selinger 2001-2013
</metadata>
<g transform="translate(0.000000,512.000000) scale(0.100000,-0.100000)"
fill="#000000" stroke="none">
<path d="M0 2560 l0 -2560 2560 0 2560 0 0 2560 0 2560 -2560 0 -2560 0 0
-2560z m3007 1904 c186 -27 316 -74 522 -188 59 -33 140 -94 234 -177 l39 -34
-83 -110 c-45 -60 -85 -112 -89 -115 -3 -3 -28 -34 -55 -70 -63 -85 -70 -90
-127 -90 -42 0 -55 6 -101 43 -89 72 -148 104 -257 141 -225 75 -417 72 -635
-10 -77 -29 -144 -77 -221 -156 -151 -156 -230 -320 -283 -583 -79 -394 -60
-946 45 -1285 64 -206 201 -400 356 -500 99 -64 276 -110 429 -110 234 0 431
72 622 226 67 54 67 54 121 48 54 -6 55 -7 102 -76 26 -39 77 -110 113 -158
36 -49 74 -102 84 -119 l17 -30 -57 -62 c-161 -174 -432 -320 -693 -374 -306
-63 -650 -28 -910 94 -247 115 -375 222 -542 451 -261 359 -382 841 -365 1445
12 403 76 690 222 992 74 154 172 297 285 416 73 78 215 197 234 197 4 0 38
18 74 39 129 75 310 138 461 160 97 15 347 12 458 -5z"/>
</g>
</svg>
